<svg width="326" height="307" viewBox="0 0 326 307" fill="none" xmlns="http://www.w3.org/2000/svg">
<path opacity="0.3" d="M162.559 291.021C252.337 291.021 325.117 285.84 325.117 279.448C325.117 273.057 252.337 267.875 162.559 267.875C72.78 267.875 0 273.057 0 279.448C0 285.84 72.78 291.021 162.559 291.021Z" fill="#3F2857"/>
<path d="M278.202 241.547C298.044 216.447 309.892 184.735 309.892 150.255C309.892 68.8844 243.929 2.92132 162.559 2.92132C81.1887 2.92132 15.2256 68.8844 15.2256 150.255C15.2256 184.735 27.0734 216.447 46.9163 241.547H278.202Z" fill="black"/>
<path d="M261.91 134.397H63.2079C50.7627 134.397 40.6738 144.486 40.6738 156.931V269.318H284.443V156.931C284.444 144.486 274.355 134.397 261.91 134.397Z" fill="white"/>
<path d="M284.409 221.236H40.6738V266.101H284.409V221.236Z" fill="#FFCBE0"/>
<path d="M284.409 226.782H40.6738V271.648H284.409V226.782Z" fill="#FFA8CB"/>
<path d="M40.2848 281.824C34.6647 281.824 30.1084 277.268 30.1084 271.648C30.1084 266.028 34.6647 261.471 40.2848 261.471C45.9048 261.471 50.4611 266.028 50.4611 271.648C50.4611 277.268 45.9048 281.824 40.2848 281.824Z" fill="white"/>
<path d="M59.8873 274.651H21.1055V183.255C21.1055 177.014 26.1647 171.955 32.4049 171.955H48.5872C54.828 171.955 59.8866 177.014 59.8866 183.255L59.8873 274.651Z" fill="#FFCBE0"/>
<path d="M284.409 281.824C278.789 281.824 274.233 277.268 274.233 271.648C274.233 266.028 278.789 261.471 284.409 261.471C290.029 261.471 294.586 266.028 294.586 271.648C294.586 277.268 290.03 281.824 284.409 281.824Z" fill="white"/>
<path d="M304.011 274.651H265.229V183.255C265.229 177.014 270.289 171.955 276.53 171.955H292.712C298.953 171.955 304.011 177.014 304.011 183.255V274.651Z" fill="#FFCBE0"/>
<path d="M304.011 269.154H21.1055V275.518H304.011V269.154Z" fill="#FFCBE0"/>
<path d="M49.7223 193.581C51.88 188.372 49.4064 182.4 44.1973 180.242C38.9882 178.085 33.0163 180.558 30.8585 185.767C28.7008 190.976 31.1744 196.948 36.3835 199.106C41.5926 201.264 47.5646 198.79 49.7223 193.581Z" fill="white"/>
<path d="M293.851 193.576C296.008 188.367 293.535 182.395 288.326 180.237C283.117 178.08 277.145 180.553 274.987 185.762C272.829 190.972 275.303 196.944 280.512 199.101C285.721 201.259 291.693 198.785 293.851 193.576Z" fill="white"/>
<path opacity="0.2" d="M146.499 275.518L143.989 233.539C143.989 233.539 161.628 238.096 166.655 233.539C179.477 239.038 199.013 236.716 199.013 236.716L186.659 275.517H202.033L221.149 219.28L121.165 212.236L130.063 275.518H146.499V275.518Z" fill="#6C1D35"/>
<path d="M244.892 221.71C240.51 232.051 212.399 281.824 212.399 281.824L193.328 275.065C193.328 275.065 196.793 262.994 200.521 250.971C203.38 241.752 206.391 232.561 208.114 228.848C204.145 231.907 186.011 233.133 166.657 227.718C143.989 232.83 127.564 222.309 127.564 222.309L133.944 250.186L140.717 279.757L119.144 282.513C119.144 282.513 97.0967 238.287 91.2679 228.476C83.813 215.943 85.7629 195.06 98.1371 191.608C109.009 188.583 127.564 196.52 127.564 196.52L144.354 197.692L175.352 199.862C175.352 199.862 208.72 196.679 211.476 195.928C214.011 195.969 216.395 196.1 218.628 196.307C242.845 198.539 249.908 209.887 244.892 221.71Z" fill="#3C2240"/>
<path d="M217.223 223.336C213.289 227.435 212.593 233.574 210.202 238.721C208.004 243.454 204.401 247.313 200.522 250.971C203.381 241.752 206.392 232.561 208.115 228.848C204.146 231.907 186.012 233.133 166.658 227.718C143.99 232.83 127.565 222.309 127.565 222.309L133.945 250.186C131.644 246.286 128.757 242.738 125.016 239.596C120.902 236.151 116.128 233.409 112.731 229.254C115.37 227.091 118.05 224.872 119.869 221.985C121.688 219.098 122.515 215.371 121.164 212.236C119.559 208.502 115.501 206.621 112.09 204.416C108.68 202.204 105.366 198.401 106.585 194.522C107.136 196.734 109.885 197.416 112.145 197.678C116.989 198.236 121.839 198.711 126.697 199.104C130.493 199.414 134.324 199.669 138.1 199.159C140.229 198.87 142.309 198.339 144.356 197.692L175.353 199.862C175.353 199.862 208.721 196.679 211.477 195.928C214.012 195.969 216.396 196.1 218.629 196.307C215.997 200.702 212.276 204.457 207.873 207.089C204.745 208.963 201.108 210.459 199.254 213.593C203.994 218.651 210.401 222.123 217.223 223.336Z" fill="#311D35"/>
<path d="M146.486 107.59C146.486 107.59 121.266 111.85 113.469 120.78C105.926 129.418 103.976 152.998 103.976 152.998C117.264 155.23 125.546 156.205 125.546 156.205L130.91 195.341C130.91 195.341 178.773 203.89 196.891 192.434L206.284 154.668L209.631 151.541L228.286 143.592C228.286 143.592 219.648 117.104 209.338 112.205C202.483 108.948 185.674 104.475 173.617 104.683" fill="#7A49AC"/>
<path d="M130.472 157L134.568 143.592C134.568 143.592 133.692 171.917 135.585 177.024C137.477 182.131 160.569 166.143 163.608 170.07C166.646 173.997 156.121 185.014 156.121 185.014C156.121 185.014 184.442 186.37 192.787 170.494C201.986 152.997 197.779 137.255 197.779 137.255L204.704 151.137L208.071 152.997L197.218 193.861L143.648 199.537L129.493 185.014L125.545 158.618L130.472 157Z" fill="#6E3D95"/>
<path d="M148.318 115.335C148.318 115.335 153.961 127.145 163.155 126.647C172.349 126.149 175.352 114.434 175.352 114.434L148.318 115.335Z" fill="#FF95A5"/>
<path d="M181.505 91.0044C189.485 97.443 190.383 80.8928 187.044 78.6695C183.703 76.4468 180.453 81.6748 180.453 81.6748" fill="#FFBE9B"/>
<path d="M184.035 74.3405C184.035 74.3405 192.317 75.478 191.221 85.301C190.366 92.968 183.177 92.968 183.177 92.968" fill="white"/>
<path d="M133.014 93.5275C133.014 93.5275 127.63 90.5407 125.794 94.1076C123.957 97.6745 132.791 111.698 136.632 102.191" fill="#FFBE9B"/>
<path d="M134.395 101.177C134.395 101.177 117.786 88.2099 121.692 69.2427C125.065 52.8654 145.714 49.3957 157.698 54.0133C158.868 47.4803 161.935 47.5051 161.935 47.5051L159.941 54.158C159.941 54.158 162.468 49.5486 165.699 49.0781C166.891 50.7895 162.88 55.6152 162.88 55.6152C162.88 55.6152 169.397 49.8546 175.97 52.9888C183.288 56.4785 192.997 86.3034 180.492 92.6718C167.986 99.0401 134.395 101.177 134.395 101.177Z" fill="#3C2240"/>
<path d="M130.475 89.9069C130.475 89.9069 135.839 126.881 163.814 121.182C192.099 115.42 181.574 76.9794 181.574 76.9794L159.956 71.6624L165.35 83.019C165.35 83.019 157.277 85.1156 143.99 75.3575C142.936 85.3113 140.139 90.3761 140.139 90.3761L138.123 80.7316L130.475 89.9069Z" fill="#FFBE9B"/>
<path d="M156.122 100.967C156.122 100.967 157.022 103.104 159.495 102.891C161.968 102.678 162.576 100.027 162.576 100.027L156.122 100.967Z" fill="#FF95A5"/>
<path d="M159.686 106.838L169.914 100.439C169.914 100.439 170.35 103.432 166.834 106.269C164.215 108.381 159.686 106.838 159.686 106.838Z" fill="white"/>
<path d="M176.594 98.0521L142.146 104.472C135.456 105.719 129.022 101.307 127.776 94.6175C126.53 87.9281 130.941 81.4943 137.631 80.2479L172.079 73.8279C178.768 72.5815 185.202 76.9931 186.448 83.6825C187.695 90.3719 183.283 96.805 176.594 98.0521Z" fill="#7A49AC"/>
<path d="M183.445 84.242C183.929 86.8409 183.315 89.3729 181.929 91.3958C180.553 93.4159 178.388 94.9048 175.801 95.3871L141.92 101.702C140.573 101.952 139.244 101.904 137.981 101.609C134.408 100.77 131.491 97.8971 130.775 94.058C130.291 91.4592 130.905 88.9271 132.292 86.9043C133.667 84.8841 135.832 83.3952 138.419 82.9129L172.3 76.5984C172.741 76.5164 173.177 76.4716 173.617 76.4516C174.522 76.4061 175.4 76.4895 176.252 76.6886C177.17 76.9125 178.035 77.257 178.84 77.7359C181.163 79.0794 182.914 81.393 183.445 84.242Z" fill="#4E356C"/>
<path opacity="0.4" d="M178.841 77.7359L164.667 97.4623L161.389 98.0734L176.253 76.6886C177.17 76.9125 178.035 77.257 178.841 77.7359Z" fill="white"/>
<path opacity="0.4" d="M162.536 78.4186L144.651 101.193L141.921 101.702C140.574 101.952 139.245 101.904 137.981 101.609L155.276 79.7718L162.536 78.4186Z" fill="white"/>
<path opacity="0.4" d="M173.618 76.4523L157.753 98.7514L152.579 99.716L168.533 77.3018L172.3 76.5997C172.742 76.5163 173.177 76.4723 173.618 76.4523Z" fill="white"/>
<path d="M161.127 194.522C161.349 194.326 166.178 193.991 167.175 194.01C168.171 194.03 167.726 195.809 167.726 195.809L160.459 197.276L161.127 194.522Z" fill="#3C2240"/>
<path d="M156.106 195.908C156.106 195.908 153.632 203.411 157.618 204.7C161.604 205.99 172.26 207.42 173.922 203.383L178.384 202.782C178.384 202.782 179.704 205.499 184.057 205.171C188.41 204.844 195.055 203.011 195.513 199.574C195.971 196.137 194.263 193.861 194.263 193.861L156.106 195.908Z" fill="#4E356C"/>
<path d="M169.418 199.537C169.418 200.161 168.912 200.667 168.287 200.667C167.663 200.667 167.157 200.161 167.157 199.537C167.157 198.912 167.663 198.406 168.287 198.406C168.912 198.406 169.418 198.912 169.418 199.537Z" fill="#FAC835"/>
<path d="M164.739 199.861C164.739 200.485 164.233 200.991 163.609 200.991C162.984 200.991 162.478 200.485 162.478 199.861C162.478 199.236 162.984 198.73 163.609 198.73C164.233 198.73 164.739 199.236 164.739 199.861Z" fill="#5CB475"/>
<path d="M185.205 198.73C185.205 199.355 184.698 199.861 184.074 199.861C183.45 199.861 182.943 199.354 182.943 198.73C182.943 198.106 183.45 197.599 184.074 197.599C184.698 197.599 185.205 198.105 185.205 198.73Z" fill="#DC5169"/>
<path d="M190.213 198.406C190.213 199.031 189.707 199.537 189.083 199.537C188.459 199.537 187.952 199.03 187.952 198.406C187.952 197.782 188.459 197.275 189.083 197.275C189.707 197.275 190.213 197.782 190.213 198.406Z" fill="#5CB4E3"/>
<path d="M168.428 206.876C168.428 206.876 169.061 208.13 168.428 209.556C168.386 209.652 168.283 209.742 168.138 209.825C166.119 210.913 155.027 210.438 152.96 209.556C150.741 208.612 146.146 206.077 146.146 206.077C146.146 206.077 108.217 203.7 102.347 193.523C100.493 190.313 100.838 180.577 101.671 171.455C102.553 161.885 103.973 152.997 103.973 152.997L130.471 157L125.945 181.404C125.945 181.404 144.368 191.911 148.302 192.703C150.328 190.009 158.031 193.544 160.725 192.752C163.419 191.959 163.894 192.435 163.102 194.178C162.309 195.921 159.14 195.762 158.189 196.555C157.238 197.347 156.97 200.144 158.031 201.15C160.47 203.472 170.171 203.534 170.171 204.96C170.171 206.387 168.428 206.876 168.428 206.876Z" fill="#FFBE9B"/>
<path d="M237.603 179.24C235.357 186.709 205.117 201.364 205.117 201.364C205.117 201.364 201.287 204.947 199.364 206.407C199.275 206.476 199.158 206.552 199.013 206.642C196.298 208.206 185.288 211.368 184.372 210.204C183.407 208.977 183.711 207.606 183.711 207.606C183.711 207.606 181.899 207.558 181.554 206.173C181.203 204.795 190.594 202.349 192.385 199.504C193.17 198.263 192.22 195.618 191.103 195.087C189.987 194.55 186.956 195.48 185.764 193.985C184.565 192.49 184.909 191.911 187.714 192.021C190.525 192.125 198.806 186.158 201.438 188.273C204.931 184.58 213.205 173.155 213.205 173.155L204.704 151.137L228.288 143.592C228.288 143.592 231.898 153.789 234.661 163.387C236.679 170.408 238.244 177.105 237.603 179.24Z" fill="#FFBE9B"/>
<path d="M143.452 290.347C141.854 293.537 138.319 292.345 138.319 292.345C138.319 292.345 129.19 300.964 123.12 302.866C119.179 304.099 110.284 304.333 105.572 301.825C104.338 301.164 103.174 299.765 102.692 297.967C102.251 296.362 102.361 294.433 103.443 292.421C105.737 288.163 119.262 280.439 119.262 280.439C119.262 280.439 118.745 274.7 122.783 273.384C128.915 271.393 135.584 279.295 135.584 279.295L139.656 274.404C141.475 274.851 142.963 278.868 143.618 282.851C144.127 285.917 144.148 288.962 143.452 290.347Z" fill="#FF4B70"/>
<path d="M221.122 300.689C221.033 301.688 220.688 302.576 220.096 303.369C218.401 305.635 213.089 307.723 208.452 306.759C203.133 305.663 198.592 301.515 195.829 297.96C192.226 293.33 190.71 289.327 190.71 289.327C190.71 289.327 187.548 288.735 186.232 285.324C185.564 283.609 186.48 281.052 187.961 278.448C190.765 273.515 195.595 268.396 195.595 268.396L199.509 274.404C199.509 274.404 203.608 270.194 207.508 271.572C212.358 273.281 212.014 279.13 212.014 279.13L214.618 277.587C215.011 280.136 213.619 285.31 216.94 290.285C219.944 294.763 221.364 298.105 221.122 300.689Z" fill="#FF4B70"/>
<path d="M113.179 287.699C113.179 287.699 118.237 285.88 121.25 289.196" stroke="white" stroke-width="3" stroke-miterlimit="10" stroke-linecap="round"/>
<path d="M115.885 283.369C115.885 283.369 121.384 281.201 124.682 284.448" stroke="white" stroke-width="3" stroke-miterlimit="10" stroke-linecap="round"/>
<path d="M202.034 285.478C202.034 285.478 207.227 281.965 211.199 285.478" stroke="white" stroke-width="3" stroke-miterlimit="10" stroke-linecap="round"/>
<path d="M205.547 291.021C205.547 291.021 209.671 289.08 212.878 291.174" stroke="white" stroke-width="3" stroke-miterlimit="10" stroke-linecap="round"/>
<path d="M143.452 290.347C141.854 293.537 138.32 292.345 138.32 292.345C138.32 292.345 129.19 300.964 123.12 302.866C119.179 304.099 110.285 304.333 105.572 301.825C104.339 301.164 103.174 299.765 102.692 297.967C106.054 299.435 112.83 301.004 118.993 300.213C127.926 299.067 141.117 285.11 143.618 282.851C144.128 285.917 144.148 288.962 143.452 290.347Z" fill="white"/>
<path d="M221.122 300.689C221.033 301.688 220.688 302.576 220.096 303.369C218.401 305.636 213.089 307.723 208.452 306.759C203.133 305.663 198.592 301.515 195.829 297.96C192.226 293.33 190.71 289.327 190.71 289.327C190.71 289.327 187.548 288.735 186.232 285.324C185.564 283.609 186.48 281.052 187.961 278.448C190.655 283.553 195.609 292.496 199.412 296.775C204.435 302.425 215.562 305.594 221.122 300.689Z" fill="white"/>
<path d="M168.14 209.825C166.121 210.913 155.028 210.438 152.961 209.556C150.743 208.612 146.147 206.077 146.147 206.077C146.147 206.077 108.218 203.7 102.348 193.523C100.495 190.313 100.839 180.577 101.673 171.455C102.327 181.121 105.063 192.552 113.875 196.238C130.087 203.017 146.685 202.639 146.685 202.639C146.685 202.639 158.514 210.293 168.14 209.825Z" fill="#FFA888"/>
<path d="M237.603 179.24C235.357 186.709 205.117 201.364 205.117 201.364C205.117 201.364 201.286 204.947 199.364 206.407C199.275 206.476 199.157 206.552 199.013 206.642C202.279 202.797 203.732 198.732 203.732 198.732C203.732 198.732 226.242 185.276 231.774 177.594C234.372 173.99 234.868 168.361 234.661 163.387C236.679 170.408 238.244 177.105 237.603 179.24Z" fill="#FFA888"/>
<path d="M181.165 102.905C181.165 104.327 180.013 105.479 178.591 105.479C177.17 105.479 176.017 104.327 176.017 102.905C176.017 101.484 177.17 100.331 178.591 100.331C180.013 100.331 181.165 101.484 181.165 102.905Z" fill="white"/>
<path d="M178.589 103.939C178.091 103.939 177.653 103.578 177.571 103.07C177.48 102.507 177.863 101.977 178.426 101.885C178.505 101.873 186.274 100.565 188.076 96.3172C190.188 91.3386 188.487 85.6627 188.469 85.6055C188.302 85.0598 188.607 84.4817 189.152 84.3136C189.696 84.1469 190.275 84.4494 190.444 84.995C190.525 85.2555 192.393 91.4357 189.979 97.1247C187.729 102.426 179.121 103.867 178.755 103.926C178.699 103.935 178.644 103.939 178.589 103.939Z" fill="white"/>
<path d="M190.861 140.829C190.861 143.151 188.978 145.033 186.656 145.033C184.334 145.033 182.452 143.151 182.452 140.829C182.452 138.507 184.334 136.624 186.656 136.624C188.978 136.624 190.861 138.507 190.861 140.829Z" fill="#FAC835"/>
<path d="M178.878 154.703C181.004 154.703 182.728 152.979 182.728 150.853C182.728 148.726 181.004 147.002 178.878 147.002C176.751 147.002 175.027 148.726 175.027 150.853C175.027 152.979 176.751 154.703 178.878 154.703Z" fill="#5CB4E3"/>
<path d="M52.5085 90.1439C74.2384 90.1439 91.8539 72.5283 91.8539 50.7985C91.8539 29.0686 74.2384 11.4531 52.5085 11.4531C30.7786 11.4531 13.1631 29.0686 13.1631 50.7985C13.1631 72.5283 30.7786 90.1439 52.5085 90.1439Z" fill="#3C2240"/>
<path d="M52.5086 85.8515C71.8678 85.8515 87.5616 70.1577 87.5616 50.7985C87.5616 31.4392 71.8678 15.7455 52.5086 15.7455C33.1493 15.7455 17.4556 31.4392 17.4556 50.7985C17.4556 70.1577 33.1493 85.8515 52.5086 85.8515Z" fill="#5CB4E3"/>
<path d="M80.3337 50.7992C80.3337 59.0326 76.7579 66.4254 71.0737 71.517C66.1474 75.9335 59.6434 78.6205 52.5123 78.6205C45.2366 78.6205 38.6292 75.837 33.6685 71.269C28.1428 66.1843 24.6841 58.8948 24.6841 50.7992C24.6841 35.4347 37.141 22.9778 52.5123 22.9778C67.8768 22.9778 80.3337 35.4347 80.3337 50.7992Z" fill="#5CB4E3" stroke="white" stroke-width="2" stroke-miterlimit="10"/>
<path d="M74.6895 272.39H40.4771V292.807H74.6895V272.39Z" fill="#7A49AC"/>
<path d="M41.6395 292.04V273.157C41.6395 272.25 40.9037 271.514 39.9963 271.514C39.0889 271.514 38.353 272.25 38.353 273.157V292.04C38.353 292.947 39.0889 293.683 39.9963 293.683C40.9037 293.683 41.6395 292.947 41.6395 292.04Z" fill="white"/>
<path d="M76.3319 292.04V273.157C76.3319 272.25 75.596 271.514 74.6886 271.514C73.7812 271.514 73.0454 272.25 73.0454 273.157V292.04C73.0454 292.947 73.7812 293.683 74.6886 293.683C75.5967 293.683 76.3319 292.947 76.3319 292.04Z" fill="white"/>
<path opacity="0.2" d="M57.0184 274.858H49.3823V287.345H57.0184V274.858Z" fill="white"/>
<path opacity="0.2" d="M64.1469 274.858H60.0723V287.345H64.1469V274.858Z" fill="white"/>
<path d="M92.1206 261.91H71.7031V296.123H92.1206V261.91Z" fill="#7A49AC"/>
<path d="M72.4709 263.073H91.3533C92.2607 263.073 92.9965 262.337 92.9965 261.43C92.9965 260.522 92.2607 259.787 91.3533 259.787H72.4709C71.5635 259.787 70.8276 260.522 70.8276 261.43C70.8276 262.337 71.5635 263.073 72.4709 263.073Z" fill="white"/>
<path d="M72.4709 297.766H91.3533C92.2607 297.766 92.9965 297.03 92.9965 296.123C92.9965 295.215 92.2607 294.479 91.3533 294.479H72.4709C71.5635 294.479 70.8276 295.215 70.8276 296.123C70.8276 297.031 71.5635 297.766 72.4709 297.766Z" fill="white"/>
<path opacity="0.2" d="M89.6528 270.816H77.1655V278.452H89.6528V270.816Z" fill="white"/>
<path opacity="0.2" d="M89.6528 281.505H77.1655V285.58H89.6528V281.505Z" fill="white"/>
<path opacity="0.2" d="M71.7035 272.39H68.4907V292.822H71.7035V272.39Z" fill="#6C1D35"/>
<path d="M98.6942 105.046H56.7203C55.4484 105.046 54.417 104.015 54.417 102.743C54.417 101.471 55.4484 100.439 56.7203 100.439H98.6942C99.9661 100.439 100.997 101.471 100.997 102.743C100.997 104.015 99.9667 105.046 98.6942 105.046Z" fill="white"/>
<path d="M78.0245 116.027H56.7203C55.4484 116.027 54.417 114.996 54.417 113.724C54.417 112.452 55.4484 111.421 56.7203 111.421H78.0245C79.2964 111.421 80.3278 112.452 80.3278 113.724C80.3278 114.996 79.2971 116.027 78.0245 116.027Z" fill="white"/>
<path d="M248.4 68.7956H213.316C212.044 68.7956 211.012 67.7642 211.012 66.4923C211.012 65.2204 212.044 64.189 213.316 64.189H248.4C249.671 64.189 250.703 65.2204 250.703 66.4923C250.703 67.7642 249.672 68.7956 248.4 68.7956Z" fill="white"/>
<path d="M241.51 79.6485H213.316C212.044 79.6485 211.012 78.6171 211.012 77.3452C211.012 76.0733 212.044 75.0419 213.316 75.0419H241.51C242.781 75.0419 243.813 76.0733 243.813 77.3452C243.814 78.6171 242.782 79.6485 241.51 79.6485Z" fill="white"/>
<path d="M248.4 90.6413H213.316C212.044 90.6413 211.012 89.6099 211.012 88.338C211.012 87.0655 212.044 86.0347 213.316 86.0347H248.4C249.671 86.0347 250.703 87.0662 250.703 88.338C250.703 89.6099 249.672 90.6413 248.4 90.6413Z" fill="white"/>
<path d="M115.885 55.4257C115.885 49.8649 111.377 45.3568 105.816 45.3568C111.377 45.3568 115.885 40.8488 115.885 35.2879C115.885 40.8488 120.393 45.3568 125.954 45.3568C120.393 45.3568 115.885 49.8649 115.885 55.4257Z" fill="white"/>
<path d="M285.763 42.5168C285.763 34.0361 278.888 27.1613 270.407 27.1613C278.888 27.1613 285.762 20.2866 285.762 11.8058C285.762 20.2866 292.637 27.1613 301.118 27.1613C292.638 27.1606 285.763 34.0361 285.763 42.5168Z" fill="white"/>
<path d="M186.512 34.1477C186.512 28.5868 182.004 24.0788 176.443 24.0788C182.004 24.0788 186.512 19.5707 186.512 14.0099C186.512 19.5707 191.02 24.0788 196.581 24.0788C191.02 24.0788 186.512 28.5868 186.512 34.1477Z" fill="white"/>
<path d="M26.9323 137.45C26.9323 134.202 24.2997 131.569 21.0518 131.569C24.2997 131.569 26.9323 128.937 26.9323 125.689C26.9323 128.937 29.5649 131.569 32.8128 131.569C29.5649 131.569 26.9323 134.202 26.9323 137.45Z" fill="white"/>
<path d="M274.233 113.679C274.233 110.431 271.6 107.799 268.353 107.799C271.6 107.799 274.233 105.166 274.233 101.918C274.233 105.166 276.866 107.799 280.114 107.799C276.866 107.799 274.233 110.431 274.233 113.679Z" fill="white"/>
<path d="M202.033 51.2374C202.033 47.9895 199.4 45.3568 196.152 45.3568C199.4 45.3568 202.033 42.7242 202.033 39.4763C202.033 42.7242 204.665 45.3568 207.913 45.3568C204.665 45.3568 202.033 47.9902 202.033 51.2374Z" fill="white"/>
<path d="M298.909 64.5858C298.909 61.3379 296.276 58.7053 293.028 58.7053C296.276 58.7053 298.909 56.0727 298.909 52.8248C298.909 56.0727 301.541 58.7053 304.789 58.7053C301.542 58.7046 298.909 61.3379 298.909 64.5858Z" fill="white"/>
<path d="M7.96695 91.8877C7.96695 88.6398 5.33432 86.0072 2.08643 86.0072C5.33432 86.0072 7.96695 83.3745 7.96695 80.1266C7.96695 83.3745 10.5996 86.0072 13.8475 86.0072C10.5996 86.0072 7.96695 88.6398 7.96695 91.8877Z" fill="white"/>
<path d="M311.871 80.7199C311.871 82.6752 310.286 84.2606 308.331 84.2606C306.375 84.2606 304.79 82.6752 304.79 80.7199C304.79 78.7645 306.375 77.1791 308.331 77.1791C310.286 77.1791 311.871 78.7645 311.871 80.7199Z" fill="white"/>
<path d="M274.137 83.2016C274.137 84.2316 273.302 85.0667 272.272 85.0667C271.242 85.0667 270.407 84.2316 270.407 83.2016C270.407 82.1716 271.242 81.3365 272.272 81.3365C273.302 81.3365 274.137 82.1716 274.137 83.2016Z" fill="white"/>
<path d="M220.322 29.9593C221.395 29.9593 222.264 29.0897 222.264 28.017C222.264 26.9444 221.395 26.0748 220.322 26.0748C219.249 26.0748 218.38 26.9444 218.38 28.017C218.38 29.0897 219.249 29.9593 220.322 29.9593Z" fill="white"/>
<path d="M241.824 9.37438C244.075 9.37438 245.9 7.54947 245.9 5.29833C245.9 3.04718 244.075 1.22227 241.824 1.22227C239.572 1.22227 237.748 3.04718 237.748 5.29833C237.748 7.54947 239.572 9.37438 241.824 9.37438Z" stroke="white" stroke-width="2" stroke-miterlimit="10"/>
<path d="M135.664 30.6621C135.664 31.9257 134.64 32.9502 133.376 32.9502C132.112 32.9502 131.088 31.9257 131.088 30.6621C131.088 29.3985 132.112 28.3739 133.376 28.3739C134.64 28.3739 135.664 29.3985 135.664 30.6621Z" stroke="white" stroke-width="2" stroke-miterlimit="10"/>
<path d="M86.4643 6.30632C86.4643 8.00055 85.0904 9.37439 83.3962 9.37439C81.702 9.37439 80.3281 8.00055 80.3281 6.30632C80.3281 4.6121 81.702 3.23825 83.3962 3.23825C85.0911 3.23825 86.4643 4.6121 86.4643 6.30632Z" fill="white"/>
<path d="M31.2995 1.22227C31.2995 1.89748 30.7525 2.44453 30.0772 2.44453C29.402 2.44453 28.855 1.89748 28.855 1.22227C28.855 0.547057 29.402 0 30.0772 0C30.7518 0 31.2995 0.547057 31.2995 1.22227Z" fill="white"/>
<path d="M313.093 10.0124C313.093 10.6876 312.546 11.2347 311.871 11.2347C311.196 11.2347 310.649 10.6876 310.649 10.0124C310.649 9.33719 311.196 8.79014 311.871 8.79014C312.546 8.79014 313.093 9.33719 313.093 10.0124Z" fill="white"/>
<path d="M251.926 117.007C251.926 117.682 251.379 118.229 250.704 118.229C250.028 118.229 249.481 117.682 249.481 117.007C249.481 116.332 250.028 115.785 250.704 115.785C251.378 115.785 251.926 116.332 251.926 117.007Z" fill="white"/>
<path d="M16.4479 95.4326C16.4479 96.1078 15.9009 96.6548 15.2257 96.6548C14.5505 96.6548 14.0034 96.1078 14.0034 95.4326C14.0034 94.7573 14.5505 94.2103 15.2257 94.2103C15.9009 94.2096 16.4479 94.7573 16.4479 95.4326Z" fill="white"/>
<path d="M71.0737 71.5171C66.1474 75.9335 59.6433 78.6205 52.5123 78.6205C45.2366 78.6205 38.6292 75.837 33.6685 71.269C33.7442 69.5259 33.8269 67.9068 33.8269 66.4874C33.8269 58.0404 39.4766 55.5739 47.2071 54.9675C43.4866 52.0324 40.9373 46.3965 40.9373 41.9388C40.9373 35.6276 46.0496 30.5153 52.3607 30.5153C58.6719 30.5153 63.7911 35.6276 63.7911 41.9388C63.7911 46.3965 61.2418 52.0324 57.5212 54.9675C65.2448 55.5739 70.9014 58.0404 70.9014 66.4874C70.9014 67.9688 70.9917 69.6775 71.0737 71.5171Z" fill="white"/>
<path d="M234.929 271.857C234.929 271.857 234.386 264.93 237.916 264.694C238.188 261.659 241.719 262.108 241.719 262.108C241.719 262.108 240.315 256.506 244.978 253.231C249.641 249.955 254.212 254.076 254.212 254.076C254.212 254.076 258.286 249.959 262.631 251.541C266.977 253.123 267.248 257.165 267.248 257.165C267.248 257.165 269.76 250.626 274.046 251.252C278.333 251.878 279.469 256.054 279.469 256.054C279.469 256.054 287.889 253.398 286.802 262.974C291.908 262.512 297.394 266.643 294.407 274.474C276.482 283.129 234.929 271.857 234.929 271.857Z" fill="#5CB4E3"/>
<path opacity="0.2" d="M245.86 270.957C245.86 270.957 246.403 265.513 250.749 266.056C250.477 260.895 259.44 259.952 262.156 264.426C265.958 260.352 268.131 264.426 268.131 264.426C268.131 264.426 270.847 259.245 275.463 260.749C280.08 262.253 279.537 267.251 279.537 267.251C279.537 267.251 285.241 266.705 284.154 272.084C266.773 277.191 245.86 270.957 245.86 270.957Z" fill="#6C1D35"/>
<path d="M298.22 269.734C296.813 274.816 294.272 279.422 290.899 283.272C289.553 284.807 288.078 286.214 286.483 287.484C280.569 292.226 273.059 295.062 264.884 295.062C256.708 295.062 249.199 292.226 243.285 287.484C241.689 286.214 240.215 284.807 238.868 283.272C235.495 279.422 232.955 274.816 231.548 269.734H298.22Z" fill="white"/>
<path d="M290.899 283.272C289.553 284.807 288.078 286.214 286.483 287.484H243.285C241.689 286.214 240.214 284.807 238.868 283.272H290.899Z" fill="#FAC835"/>
</svg>
